# AST/ASF file generated using VICON BodyLanguage
# -----------------------------------------------
:version 1.10
:name VICON
:units
  mass 1.0
  length 0.45
  angle deg
:documentation
   .ast/.asf automatically generated from VICON data using
   VICON BodyBuilder and BodyLanguage model FoxedUp or BRILLIANT.MOD
:root
   order TX TY TZ RX RY RZ
   axis XYZ
   position 0 0 0  
   orientation 0 0 0 
:bonedata
  begin
     id 1 
     name lhipjoint
     direction 0.707368 -0.647095 0.284426 
     length 2.60678 
     axis 0 0 0  XYZ
  end
  begin
     id 2 
     name lfemur
     direction 0.34202 -0.939693 0  
     length 6.63812  
     axis 0 0 20  XYZ
    dof rx ry rz
    limits (-160.0 20.0)
           (-70.0 70.0)
           (-60.0 70.0)
  end
  begin
     id 3 
     name ltibia
     direction 0.34202 -0.939693 0   
     length 7.51178   
     axis 0 0 20   XYZ
    dof rx
    limits (-10.0 170.0)
  end
  begin
     id 4 
     name lfoot
     direction 0.121251 -0.333133 0.935051   
     length 1.83716   
     axis -90 7.62852e-016 20   XYZ
    dof rx rz
    limits (-45.0 90.0)
           (-70.0 20.0)
  end
  begin
     id 5 
     name ltoes
     direction 1.53611e-011 -4.21962e-011 1   
     length 0.916133   
     axis -90 7.62852e-016 20   XYZ
    dof rx
    limits (-90.0 20.0)
  end
  begin
     id 6 
     name rhipjoint
     direction -0.692419 -0.660507 0.290321   
     length 2.55385  
     axis 0 0 0  XYZ 
  end
  begin
     id 7 
     name rfemur
     direction -0.34202 -0.939693 0   
     length 7.29079   
     axis 0 0 -20   XYZ
    dof rx ry rz
    limits (-160.0 20.0)
           (-70.0 70.0)
           (-70.0 60.0)
  end
  begin
     id 8 
     name rtibia
     direction -0.34202 -0.939693 0   
     length 7.47143   
     axis 0 0 -20   XYZ
    dof rx
    limits (-10.0 170.0)
 end
 begin
     id 9 
     name rfoot
     direction -0.119907 -0.329441 0.936532   
     length 1.79439  
     axis -90 -7.62852e-016 -20   XYZ
    dof rx rz
    limits (-45.0 90.0)
           (-20.0 70.0)
  end
  begin
     id 10 
     name rtoes
     direction -1.53571e-011 -4.21961e-011 1   
     length 0.896039   
     axis -90 -7.62852e-016 -20   XYZ
    dof rx
    limits (-90.0 20.0)
  end
  begin
     id 11 
     name lowerback
     direction 0.0367721 0.992912 -0.113016   
     length 1.73542   
     axis 0 0 0   XYZ
    dof rx ry rz
    limits (-20.0 45.0)
           (-30.0 30.0)
           (-30.0 30.0)
  end
  begin
     id 12 
     name upperback
     direction -0.000314626 0.990678 0.136227   
     length 1.7514   
     axis 0 0 0   XYZ
    dof rx ry rz
    limits (-20.0 45.0)
           (-30.0 30.0)
           (-30.0 30.0)
  end
  begin
     id 13 
     name thorax
     direction -0.0226159 0.981151 0.191917   
     length 1.71471   
     axis 0 0 0   XYZ
    dof rx ry rz
    limits (-20.0 45.0)
           (-30.0 30.0)
           (-30.0 30.0)
  end
  begin
     id 14 
     name lowerneck
     direction 0.0219333 0.998071 0.0580739   
     length 1.65882   
     axis 0 0 0   XYZ
    dof rx ry rz
    limits (-20.0 45.0)
           (-30.0 30.0)
           (-30.0 30.0)
  end
  begin
     id 15 
     name upperneck
     direction 0.0384529 0.980058 -0.194957   
     length 1.6612   
     axis 0 0 0   XYZ
    dof rx ry rz
    limits (-20.0 45.0)
           (-30.0 30.0)
           (-30.0 30.0)
  end
  begin
     id 16
     name head
     direction 0.00592123 0.997421 -0.0715234  
     length 1.68077  
     axis 0 0 0   XYZ
    dof rx ry rz
    limits (-20.0 45.0)
           (-30.0 30.0)
           (-30.0 30.0)
  end
  begin
     id 17 
     name lclavicle
     direction 0.904803 0.417826 0.0821728  
     length 3.42227  
     axis 0 0 0   XYZ
    dof ry rz
    limits (-20.0 10.0)
           (0.0 20.0)
  end
  begin
     id 18 
     name lhumerus
     direction 1 -4.48965e-011 -2.68786e-027   
     length 5.11878   
     axis -180 -30 -90   XYZ
    dof rx ry rz
    limits (-60.0 90.0)
           (-90.0 90.0)
           (-90.0 90.0)
  end
  begin
     id 19
     name lradius
     direction 1 -4.48965e-011 2.61168e-028   
     length 3.59971   
     axis -180 -30 -90   XYZ
    dof rx
    limits (-10.0 170.0)
  end
  begin
     id 20
     name lwrist
     direction 1 -4.48965e-011 1.58672e-027   
     length 1.79985   
     axis -1.65735e-015 90 90   XYZ
    dof ry
    limits (-180.0 0.0)
 end
  begin
     id 21 
     name lhand
     direction 1 -4.48942e-011 3.17344e-027   
     length 0.62877   
     axis -2.02492e-015 90 90   XYZ
    dof rx rz
    limits (-90.0 90.0)
           (-45.0 45.0)
  end
  begin
     id 22 
     name lfingers
     direction 1 -4.49011e-011 6.34687e-027   
     length 0.506931   
     axis -4.04985e-015 90 90   XYZ
    dof rx
    limits (0.0 90.0)
  end
  begin
     id 23
     name lthumb
     direction 0.707107 -6.34982e-011 0.707107   
     length 0.727854   
     axis -90 45 2.85299e-015   XYZ
    dof rx rz
    limits (-45.0 45.0)
           (-45.0 45.0)
  end
  begin
     id 24 
     name rclavicle
     direction -0.945647 0.32488 0.0143075   
     length 3.52737  
     axis 0 0 0   XYZ 
    dof ry rz
    limits (-10.0 20.0)
           (-20.0 0.0)
  end
  begin
     id 25 
     name rhumerus
     direction -1 -4.48962e-011 1.92182e-027  
     length 5.4902   
     axis -180 30 90   XYZ
    dof rx ry rz
    limits (-90.0 60.0)
           (-90.0 90.0)
           (-90.0 90.0)
  end
  begin
     id 26 
     name rradius
     direction -1 -4.48967e-011 -5.97193e-028   
     length 3.20659   
     axis -180 30 90   XYZ
    dof rx
    limits (-10.0 170.0)
  end
  begin
     id 27 
     name rwrist
     direction -1 -4.48964e-011 1.58672e-027   
     length 1.6033   
     axis -1.65735e-015 -90 -90   XYZ
    dof ry
    limits (-180.0 0.0)
  end
  begin
     id 28
     name rhand
     direction -1 -4.49006e-011 3.17344e-027   
     length 0.691885   
     axis -2.02492e-015 -90 -90   XYZ
    dof rx rz
    limits (-90.0 90.0)
           (-45.0 45.0)
  end
  begin
     id 29
     name rfingers
     direction -1 -4.48908e-011 6.34687e-027   
     length 0.557815   
     axis -4.04985e-015 -90 -90   XYZ
    dof rx
    limits (0.0 90.0)
  end
  begin
     id 30
     name rthumb
     direction -0.707107 -6.34999e-011 0.707107   
     length 0.800915   
     axis -90 -45 -2.85299e-015   XYZ
    dof rx rz
    limits (-45.0 45.0)
           (-45.0 45.0)
  end
:hierarchy
  begin
    root lhipjoint rhipjoint lowerback
    lhipjoint lfemur
    lfemur ltibia
    ltibia lfoot
    lfoot ltoes
    rhipjoint rfemur
    rfemur rtibia
    rtibia rfoot
    rfoot rtoes
    lowerback upperback
    upperback thorax
    thorax lowerneck lclavicle rclavicle
    lowerneck upperneck
    upperneck head
    lclavicle lhumerus
    lhumerus lradius
    lradius lwrist
    lwrist lhand lthumb
    lhand lfingers
    rclavicle rhumerus
    rhumerus rradius
    rradius rwrist
    rwrist rhand rthumb
    rhand rfingers
  end

#!OML:ASF I:\Actors\actors\Patient Classification 1\Patient 1\Session 1\Subject1.ASF
:FULLY-SPECIFIED
:DEGREES
1
root 0.734921 17.4308 9.05255 9.75503 -2.12838 -9.94409
lowerback -0.452584 1.27389 6.33182
upperback -10.0758 2.21477 1.90401
thorax -10.3424 0.631943 -1.67261
lowerneck -4.35294 -9.71052 -5.08151
upperneck 21.489 -14.4555 6.75926
head 8.24074 -6.74885 1.77225
rclavicle 1.0635e-014 1.78906e-014
rhumerus -51.3863 -33.8011 -61.0894
rradius 25.0503
rwrist 49.4699
rhand 4.05588 -31.5867
rfingers 7.12502
rthumb 29.469 -59.2688
lclavicle 1.0635e-014 1.78906e-014
lhumerus -55.7621 38.0799 52.0308
lradius 23.1701
lwrist -26.6523
lhand -16.7726 -14.4384
lfingers 7.12502
lthumb 9.45472 15.3295
rfemur -4.62846 27.4902 26.0567
rtibia 1.98042
rfoot -10.6979 -26.6802
rtoes -0.715031
lfemur 4.15805 -44.622 -10.5717
ltibia -4.61596
lfoot -22.8876 53.4843
ltoes 13.6369
2
root 0.73427 17.4313 9.05129 9.79491 -2.11559 -9.87105
lowerback -0.469631 1.16435 6.21644
upperback -9.96285 2.06727 2.08248
thorax -10.2228 0.584458 -1.4058
lowerneck -4.87586 -9.6298 -5.58264
upperneck 21.6425 -14.311 6.89916
head 8.42612 -6.68491 1.87707
rclavicle -1.10325e-014 2.70347e-014
rhumerus -50.7597 -33.5449 -61.2811
rradius 24.9244
rwrist 49.4585
rhand 3.86004 -31.7284
rfingers 7.12502
rthumb 29.2821 -59.4433
lclavicle -1.10325e-014 2.70347e-014
lhumerus -55.937 38.6106 52.0031
lradius 23.2115
lwrist -26.4865
lhand -16.6788 -14.513
lfingers 7.12502
lthumb 9.54526 15.2508
rfemur -4.63887 27.6506 25.9661
rtibia 1.92747
rfoot -10.744 -26.8488
rtoes 2.52909
lfemur 4.11774 -44.7641 -10.642
ltibia -4.60875
lfoot -23.1653 53.5887
ltoes 13.8455
3
root 0.734087 17.431 9.05205 9.81922 -2.11214 -9.80573
lowerback -0.523628 1.05278 6.09801
upperback -9.82569 1.91332 2.27623
thorax -10.0534 0.536014 -1.12046
lowerneck -5.45396 -9.55879 -6.00832
upperneck 21.8354 -14.1531 6.90343
head 8.61814 -6.61883 1.92615
rclavicle -1.93815e-015 1.51076e-014
rhumerus -50.118 -33.3073 -61.4492
rradius 24.7973
rwrist 49.4479
rhand 3.66626 -31.7966
rfingers 7.12502
rthumb 29.097 -59.5437
lclavicle -1.93815e-015 1.51076e-014
lhumerus -56.179 39.2847 51.8789
lradius 23.2379
lwrist -26.5958
lhand -16.776 -14.4494
lfingers 7.12502
lthumb 9.45149 15.3186
rfemur -4.6394 27.6738 25.879
rtibia 1.88525
rfoot -10.7966 -26.8671
rtoes 2.47654
lfemur 4.10105 -44.8635 -10.7196
ltibia -4.59613
lfoot -23.2698 53.6632
ltoes 13.8696
4
root 0.733646 17.4302 9.05304 9.8381 -2.10773 -9.79959
lowerback -0.55982 0.936767 6.03864
upperback -9.6888 1.75883 2.48386
thorax -9.89411 0.481975 -0.854206
lowerneck -6.06888 -9.49208 -6.3374
upperneck 22.0548 -13.9796 6.78587
head 8.80875 -6.54834 1.92158
rclavicle -1.54555e-014 2.62396e-014
rhumerus -49.4893 -33.0737 -61.62
rradius 24.7001
rwrist 49.4215
rhand 3.57949 -31.8235
rfingers 7.12502
rthumb 29.0142 -59.5849
lclavicle -1.54555e-014 2.62396e-014
lhumerus -56.4428 39.9724 51.7094
lradius 23.2399
lwrist -26.7959
lhand -16.909 -14.3648
lfingers 7.12502
lthumb 9.32311 15.409
rfemur -4.62132 27.7631 25.8679
rtibia 1.84104
rfoot -10.8667 -26.9356
rtoes 4.11915
lfemur 4.09361 -44.9102 -10.7184
ltibia -4.61173
lfoot -23.2347 53.7139
ltoes 13.8214
5
root 0.730024 17.4347 9.05343 9.98727 -2.20042 -9.47595
lowerback -0.706539 0.833896 5.55981
upperback -9.59592 1.58735 2.59668
thorax -9.71823 0.448752 -0.454716
lowerneck -6.74362 -9.42935 -6.56196
upperneck 22.308 -13.8209 6.66811
head 9.01632 -6.47535 1.89677
rclavicle -6.4605e-015 -2.3059e-014
rhumerus -48.764 -32.8967 -61.8464
rradius 24.5216
rwrist 49.0405
rhand 3.61296 -31.9571
rfingers 7.12502
rthumb 29.0461 -59.7129
lclavicle -6.4605e-015 -2.3059e-014
lhumerus -56.4343 40.4052 51.9018
lradius 23.3077
lwrist -26.5052
lhand -17.0728 -13.6906
lfingers 7.12502
lthumb 9.16506 16.0902
rfemur -5.15122 27.0593 25.2854
rtibia 2.23092
rfoot -10.9056 -26.2011
rtoes 5.56483
lfemur 3.8873 -45.2117 -10.9629
ltibia -4.56609
lfoot -23.7204 53.959
ltoes 14.3922
6
root 0.723188 17.4444 9.07708 10.4013 -2.04997 -9.31443
lowerback -1.52786 0.552228 5.17533
upperback -9.37592 1.14081 2.98924
thorax -9.01515 0.295796 0.210955
lowerneck -7.92852 -9.27348 -7.18066
upperneck 22.6771 -13.4454 6.56984
head 9.37503 -6.31353 1.94005
rclavicle 3.50358e-015 -2.50469e-014
rhumerus -47.2453 -32.3544 -62.376
rradius 24.1471
rwrist 48.3248
rhand 3.74388 -32.3591
rfingers 7.12502
rthumb 29.1712 -60.0933
lclavicle 3.50358e-015 -2.50469e-014
lhumerus -56.4733 41.3104 52.3552
lradius 23.5421
lwrist -25.8221
lhand -17.3427 -12.2698
lfingers 7.12502
lthumb 8.90464 17.5223
rfemur -6.3755 24.3945 24.7488
rtibia 3.31439
rfoot -10.9596 -23.7885
rtoes 4.40463
lfemur 3.387 -45.6491 -10.7858
ltibia -4.59138
lfoot -23.9824 54.2482
ltoes 14.6024
7
root 0.719252 17.4491 9.08578 10.5793 -2.0255 -9.16171
lowerback -1.87499 0.532517 4.9566
upperback -9.40905 1.07912 2.95828
thorax -8.84897 0.28366 0.305325
lowerneck -7.86332 -9.26168 -7.16529
upperneck 22.6738 -13.4371 6.57826
head 9.3605 -6.30983 1.94496
rclavicle -3.29237e-014 7.55382e-014
rhumerus -47.128 -32.3036 -62.4517
rradius 24.0737
rwrist 47.911
rhand 3.89461 -32.7213
rfingers 7.12502
rthumb 29.3151 -60.4304
lclavicle -3.29237e-014 7.55382e-014
lhumerus -56.3598 41.1499 52.6108
lradius 23.6495
lwrist -25.3697
lhand -17.5477 -11.4428
lfingers 7.12502
lthumb 8.70688 18.3576
rfemur -6.54247 24.4432 24.5035
rtibia 3.2768
rfoot -11.0057 -23.87
rtoes 4.40115
lfemur 3.19657 -45.9851 -10.8249
ltibia -4.59995
lfoot -24.2044 54.5348
ltoes 14.696
8
root 0.718718 17.4495 9.08502 10.5907 -2.03241 -9.1395
lowerback -1.87015 0.538682 4.93743
upperback -9.41928 1.08664 2.94242
thorax -8.86264 0.287793 0.298841
lowerneck -7.84287 -9.26336 -7.17575
upperneck 22.6906 -13.445 6.59621
head 9.36531 -6.31297 1.95242
rclavicle 3.8266e-015 -2.69353e-014
rhumerus -47.1591 -32.3081 -62.4355
rradius 24.0996
rwrist 47.9203
rhand 3.92782 -32.8003
rfingers 7.12502
rthumb 29.3468 -60.5039
lclavicle 3.8266e-015 -2.69353e-014
lhumerus -56.4176 41.1471 52.5584
lradius 23.6562
lwrist -25.3135
lhand -17.6214 -11.3681
lfingers 7.12502
lthumb 8.6357 18.4353
rfemur -6.55829 24.4581 24.464
rtibia 3.26167
rfoot -11.0407 -23.8693
rtoes 4.35331
lfemur 3.20856 -46.1019 -10.8563
ltibia -4.6158
lfoot -24.2895 54.6503
ltoes 14.6829
9
root 0.716905 17.45 9.08407 10.6213 -2.02106 -9.12814
lowerback -1.88601 0.546171 4.91104
upperback -9.42737 1.09493 2.93855
thorax -8.86205 0.293748 0.309092
lowerneck -7.87172 -9.2794 -7.19392
upperneck 22.7229 -13.4641 6.58846
head 9.38437 -6.32254 1.94828
rclavicle -2.35063e-014 3.48867e-014
rhumerus -47.1573 -32.3187 -62.4201
rradius 24.1008
rwrist 47.8904
rhand 3.85459 -32.7605
rfingers 7.12502
rthumb 29.2769 -60.4763
lclavicle -2.35063e-014 3.48867e-014
lhumerus -56.4395 41.1251 52.5775
lradius 23.6858
lwrist -25.2398
lhand -17.5741 -11.3654
lfingers 7.12502
lthumb 8.68132 18.4361
rfemur -6.596 24.5554 24.4353
rtibia 3.25036
rfoot -11.0324 -23.9579
rtoes 4.44966
lfemur 3.12535 -46.0439 -10.7834
ltibia -4.63078
lfoot -24.2128 54.5915
ltoes 14.5932
10
root 0.71532 17.4503 9.08309 10.6508 -2.02046 -9.14431
lowerback -1.91236 0.611526 4.93459
upperback -9.44347 1.17814 2.87129
thorax -8.86002 0.329854 0.220351
lowerneck -7.83528 -9.34703 -7.11334
upperneck 22.7425 -13.5807 6.60079
head 9.3886 -6.36981 1.92656
rclavicle 9.06955e-015 -6.95746e-015
rhumerus -47.2867 -32.4687 -62.3667
rradius 24.1323
rwrist 47.8102
rhand 3.80132 -32.7421
rfingers 7.12502
rthumb 29.226 -60.4668
lclavicle 9.06955e-015 -6.95746e-015
lhumerus -56.3057 40.9737 52.6725
lradius 23.6766
lwrist -25.2983
lhand -17.5012 -11.3458
lfingers 7.12502
lthumb 8.75171 18.4528
rfemur -6.63477 24.6313 24.448
rtibia 3.26951
rfoot -11.0182 -24.0254
rtoes 4.37005
lfemur 3.05491 -45.9881 -10.6936
ltibia -4.64125
lfoot -24.1263 54.5554
ltoes 14.5887
11
root 0.714666 17.4506 9.08265 10.6434 -2.05733 -9.14509
lowerback -1.90796 0.739617 4.97362
upperback -9.46453 1.34326 2.72099
thorax -8.87596 0.400946 0.0302353
lowerneck -7.68568 -9.45866 -6.90846
upperneck 22.6901 -13.7843 6.63171
head 9.34513 -6.45073 1.88762
rclavicle -6.06293e-015 -3.97569e-014
rhumerus -47.6058 -32.8037 -62.2213
rradius 24.2081
rwrist 47.7667
rhand 3.82303 -32.7331
rfingers 7.12502
rthumb 29.2467 -60.4541
lclavicle -6.06293e-015 -3.97569e-014
lhumerus -56.0212 40.6847 52.8117
lradius 23.6002
lwrist -25.4593
lhand -17.4676 -11.3584
lfingers 7.12502
lthumb 8.78409 18.4388
rfemur -6.61979 24.669 24.4546
rtibia 3.26445
rfoot -11.0424 -24.0347
rtoes 4.45315
lfemur 3.08746 -46.0016 -10.7197
ltibia -4.64023
lfoot -24.1563 54.5987
ltoes 14.6522
